<svg width="38" height="38" viewBox="0 0 38 38" fill="none" xmlns="http://www.w3.org/2000/svg">
<g id="Volumn">
<path id="Vector" d="M30.3355 19C30.3355 14.2852 27.4535 10.2477 23.3629 8.54102L22.2738 11.1574C25.3418 12.4391 27.5 15.4672 27.5 19C27.5 22.5395 25.3418 25.5609 22.2672 26.8426L23.3563 29.459C27.4535 27.7523 30.3355 23.7148 30.3355 19ZM24.6645 19C24.6645 16.6426 23.2234 14.6238 21.1781 13.7738L20.0891 16.3902C21.1117 16.8152 21.8289 17.8246 21.8289 19.0066C21.8289 20.182 21.1117 21.1914 20.0891 21.623L21.1781 24.2395C23.2234 23.3762 24.6645 21.3574 24.6645 19ZM25.541 3.3082L24.4453 5.92461C29.5652 8.05625 33.1645 13.1031 33.1645 19C33.1645 24.8902 29.5652 29.9438 24.4453 32.0754L25.5344 34.6918C31.6836 32.1285 36 26.0723 36 19C36 11.9277 31.6836 5.87148 25.541 3.3082ZM2 11.9145V26.0789H7.66445L17.5855 36V2L7.66445 11.9145H2Z" fill="white"/>
</g>
</svg>
